<svg id="Capa_1" enable-background="new 0 0 511.145 511.145" height="512" viewBox="0 0 511.145 511.145" width="512" xmlns="http://www.w3.org/2000/svg"><g><g><g><path d="m499.416 446.351h-487.688c-2.335 0-4.228-1.893-4.228-4.228v-37.468c0-20.424 16.557-36.981 36.981-36.981h422.183c20.424 0 36.981 16.557 36.981 36.981v37.468c-.001 2.335-1.894 4.228-4.229 4.228z" fill="#68b181"/></g></g><g><g><path d="m466.663 367.674h-30c20.424 0 36.981 16.557 36.981 36.981v37.468c0 2.335-1.893 4.228-4.228 4.228h30c2.335 0 4.228-1.893 4.228-4.228v-37.468c0-20.424-16.557-36.981-36.981-36.981z" fill="#5ea570"/></g></g><g><g><path d="m459.022 169.729c-13.485-12.914-21.11-30.775-21.11-49.446v-.152c0-1.876-1.521-3.396-3.396-3.396h-42.431c-1.876 0-3.396 1.521-3.396 3.396 0 18.759-7.697 36.697-21.294 49.621-2.605 2.477-5.354 6.434-7.948 10.814-7.875 13.298-11.878 28.534-11.878 43.989v107.201c0 19.947 16.17 36.118 36.118 36.118h59.227c19.947 0 36.118-16.17 36.118-36.118v-107.269c0-15.907-4.191-31.605-12.557-45.133-2.265-3.66-7.453-9.625-7.453-9.625z" fill="#a2abb8"/></g></g><g><g><path d="m466.473 179.354c-2.263-3.66-7.452-9.625-7.452-9.625-13.485-12.914-21.11-30.775-21.11-49.446v-.152c0-1.876-1.521-3.396-3.397-3.396h-30c1.876 0 3.397 1.521 3.397 3.396v.152c0 18.671 7.625 36.532 21.11 49.446 0 0 5.189 5.964 7.452 9.625 8.367 13.529 12.557 29.227 12.557 45.133v107.269c0 19.947-16.17 36.118-36.117 36.118h30c19.947 0 36.117-16.17 36.117-36.118v-107.269c0-15.907-4.19-31.604-12.557-45.133z" fill="#909ba6"/></g></g><g><g><path d="m347.895 367.874c19.947 0 36.118-16.17 36.118-36.118v-107.269c0-15.907-4.191-31.605-12.557-45.133-2.263-3.66-7.452-9.625-7.452-9.625-13.485-12.914-21.11-30.775-21.11-49.446v-.152c0-1.876-1.521-3.396-3.396-3.396h-42.431c-1.876 0-3.397 1.521-3.397 3.396 0 10.154-2.255 20.068-6.481 29.076" fill="#c8d2dc"/></g></g><g><g><path d="m371.456 179.354c-2.263-3.66-7.452-9.625-7.452-9.625-13.485-12.914-21.11-30.775-21.11-49.446v-.152c0-1.876-1.521-3.396-3.396-3.396h-30c1.876 0 3.396 1.521 3.396 3.396v.152c0 18.671 7.626 36.532 21.11 49.446 0 0 5.189 5.964 7.452 9.625 8.366 13.529 12.557 29.227 12.557 45.133v107.269c0 9.358-3.56 17.885-9.398 24.301l3.281 11.817c19.947 0 36.118-16.17 36.118-36.118v-107.269c-.001-15.907-4.192-31.604-12.558-45.133z" fill="#b9c3cd"/></g></g><g><g><path d="m287.189 149.207c-3.581 7.633-8.576 14.617-14.813 20.545-2.605 2.477-5.354 6.434-7.948 10.814-7.875 13.298-11.877 28.534-11.877 43.989v107.201c0 19.947 16.17 36.118 36.118 36.118h59.227" fill="#c8d2dc"/></g></g><g><g><path d="m258.648 98.272-84.484-33.479-84.485 33.479-38.464 73.361v196.039h245.898v-196.039z" fill="#df6937"/></g></g><g><g><path d="m258.648 98.272-84.484-33.479-84.485 33.479-.074.141 54.559-21.62 84.484 33.479 38.465 73.361v184.039h30v-196.039z" fill="#dd552d"/></g></g><g><g><path d="m302.451 204.154h-256.574c-8.214 0-14.873-6.659-14.873-14.873v-2.034c0-8.214 6.659-14.873 14.873-14.873h256.574c8.214 0 14.873 6.659 14.873 14.873v2.034c-.001 8.214-6.659 14.873-14.873 14.873z" fill="#c8d2dc"/></g></g><g><g><path d="m130.083 279.815h88.161v87.857h-88.161z" fill="#f4daa7"/></g></g><path d="m475.313 361.025c7.004-7.758 11.217-18.04 11.217-29.269v-38.978c0-4.142-3.357-7.5-7.5-7.5s-7.5 3.358-7.5 7.5v38.978c0 14.592-10.838 26.743-25.268 28.418h-65.334c6.626-7.713 10.584-17.704 10.584-28.418v-107.269c0-2.149-.073-4.288-.212-6.415h22c4.143 0 7.5-3.358 7.5-7.5s-3.357-7.5-7.5-7.5h-24.192c-2.243-9.833-6.027-19.18-11.273-27.664-.628-1.015-1.417-2.145-2.257-3.278 12.205-13.012 19.52-30.08 20.497-47.897h34.44c1.009 19.077 9.282 37.339 23.059 50.662 1.487 1.727 5.01 5.96 6.521 8.403 3.779 6.11 6.654 12.768 8.578 19.774h-13.589c-4.143 0-7.5 3.358-7.5 7.5s3.357 7.5 7.5 7.5h16.188c.165 2.123.258 4.262.258 6.415v38.291c0 4.142 3.357 7.5 7.5 7.5s7.5-3.358 7.5-7.5v-38.291c0-17.637-4.729-34.608-13.678-49.079-2.512-4.061-7.601-9.944-8.173-10.602-.149-.172-.307-.337-.471-.494-11.946-11.441-18.798-27.49-18.798-44.03v-.152c0-6.008-4.888-10.896-10.896-10.896h-42.431c-6.009 0-10.897 4.888-10.897 10.896 0 14.937-5.593 29.442-15.465 40.544-9.785-11.081-15.329-25.531-15.329-40.391v-.152c0-6.008-4.888-10.896-10.896-10.896h-42.431c-6.009 0-10.897 4.888-10.897 10.896 0 4.112-.412 8.171-1.222 12.151l-19.657-37.492c-.834-1.59-2.21-2.828-3.88-3.49l-84.484-33.479c-1.775-.704-3.751-.704-5.526 0l-84.483 33.479c-1.669.661-3.045 1.9-3.879 3.49l-36.747 70.084h-.414c-12.336 0-22.373 10.036-22.373 22.373v2.034c0 11.607 8.885 21.175 20.211 22.267v91.217c0 4.142 3.358 7.5 7.5 7.5s7.5-3.358 7.5-7.5v-91.11h22.883v148.521h-22.882v-27.41c0-4.142-3.358-7.5-7.5-7.5s-7.5 3.358-7.5 7.5v27.43c-24.174.41-43.715 20.189-43.715 44.459v37.468c0 6.467 5.261 11.729 11.729 11.729h487.688c6.467 0 11.729-5.262 11.729-11.729v-37.468c-.001-21.567-15.432-39.592-35.833-43.63zm-179.982-211.689c3.347-8.035 5.269-16.461 5.73-25.102h34.438c1.009 19.078 9.282 37.34 23.059 50.662 1.425 1.655 5.016 5.969 6.521 8.403 3.779 6.11 6.654 12.768 8.578 19.774h-13.589-11.389c-4.143 0-7.5 3.358-7.5 7.5s3.357 7.5 7.5 7.5h11.389 16.188c.165 2.123.258 4.262.258 6.415v107.269c0 13.537-9.606 25.327-22.843 28.036-.439.09-.857.223-1.259.382h-47.798v-148.627c11.326-1.091 20.211-10.66 20.211-22.267v-2.034c0-12.336-10.036-22.373-22.373-22.373h-.413l-7.438-14.187c.282-.417.529-.867.73-1.351zm-128.667 62.318v60.662h-29.081v-60.662zm33.429 75.661-25.93 25.84-25.93-25.84zm-36.554 36.429-25.956 25.866v-51.732zm10.625 10.588 25.93 25.84h-51.859zm10.624-10.588 25.956-25.866v51.732zm25.956-51.429h-29.081v-60.662h29.081zm15 7.5v-68.162h26.354v148.521h-26.354zm41.354-68.161h22.515v148.521h-22.515zm-41.354-46.78v-71.574l26.354 10.443v61.13h-26.354zm-129.146-61.276 25.984-10.297v71.573h-25.984zm40.985-16.241 29.081-11.524v89.041h-29.081zm44.08-11.525 29.081 11.524v77.517h-29.081zm85.435 54.706 18.002 34.335h-18.002zm-185.5-.703v35.038h-18.371zm-43.094 59.446v-2.034c0-4.065 3.307-7.373 7.373-7.373h256.573c4.065 0 7.373 3.307 7.373 7.373v2.034c0 4.065-3.308 7.373-7.373 7.373h-256.574c-4.065 0-7.372-3.308-7.372-7.373zm58.094 22.373h25.984v148.521h-25.984zm399.547 227.197h-481.145v-34.196c0-16.256 13.225-29.481 29.48-29.481h402.081c.038.001.076.005.114.005.034 0 .069-.005.104-.005h19.883c16.256 0 29.482 13.225 29.482 29.481v34.196z"/></g></svg>