<svg id="Capa_1" enable-background="new 0 0 512 512" height="512" viewBox="0 0 512 512" width="512" xmlns="http://www.w3.org/2000/svg"><g><g><g><path d="m376.259 20.213c-2.263 0-4.46.282-6.561.806-6.086-8.202-15.84-13.519-26.838-13.519-9.878 0-18.752 4.292-24.866 11.108-7.274-6.881-17.083-11.108-27.885-11.108-22.419 0-40.594 18.174-40.594 40.594 0 22.419 18.174 40.594 40.594 40.594 14.755 0 27.669-7.874 34.776-19.647 5.191 3.322 11.355 5.256 17.975 5.256 6.487 0 12.539-1.856 17.663-5.057 4.434 3.179 9.863 5.057 15.735 5.057 14.935 0 27.042-12.107 27.042-27.042s-12.107-27.042-27.041-27.042z" fill="#dd552d"/></g></g><g><g><path d="m381.422 262.142h-152.89l51.454-168.584c5.039-23.677 25.949-40.606 50.156-40.606 28.321 0 51.279 22.959 51.279 51.279v157.911z" fill="#ebb34c"/></g></g><g><g><path d="m330.143 52.951c-5.189 0-10.224.783-14.987 2.239 20.995 6.42 36.266 25.944 36.266 49.041v157.911h30v-157.912c0-28.32-22.958-51.279-51.279-51.279z" fill="#e9a52d"/></g></g><g><g><path d="m422.717 147.144h-41.295v-36.842h4.453c20.348 0 36.842 16.495 36.842 36.842z" fill="#f5de46"/></g></g><g><g><path d="m252.818 466.651h-5.474v-55.653h-32.024v55.653h-5.474c-12.859 0-23.284 10.425-23.284 23.284v5.642c0 4.929 3.995 8.924 8.924 8.924h71.693c4.928 0 8.924-3.995 8.924-8.924v-5.642c-.001-12.859-10.425-23.284-23.285-23.284z" fill="#f5de46"/></g></g><g><g><path d="m89.283 221.4v42.133c0 63.023 51.09 114.113 114.113 114.113h6.461v33.351h44.223v-33.351h13.23c63.023 0 114.113-51.09 114.113-114.113v-42.133z" fill="#faf8f8"/></g></g><g><g><path d="m351.422 221.4v42.133c0 63.023-51.09 114.113-114.113 114.113-7.307 0-13.23 5.923-13.23 13.23v20.121h30v-33.351h13.23c63.023 0 114.113-51.09 114.113-114.113v-42.133z" fill="#f0e9e6"/></g></g><g><g><path d="m265.851 190.504-134.015 19.253c-6.133.881-10.391 6.568-9.51 12.701l1.316 9.16c6.96 48.45 51.879 82.084 100.329 75.124l57.394-8.245c27.292-3.921 46.238-29.224 42.317-56.515l-1.316-9.16c-3.92-27.293-29.223-46.238-56.515-42.318z" fill="#f0e9e6"/></g></g><g><g><path d="m323.682 241.981-1.316-9.16c-3.921-27.292-29.224-46.238-56.515-42.317l-9.408 1.352c18.435 5.187 33.025 20.789 35.923 40.965l1.316 9.16c3.921 27.292-15.025 52.595-42.317 56.515l-54.946 7.894c8.884 1.518 18.151 1.702 27.552.352l57.394-8.246c27.292-3.92 46.238-29.223 42.317-56.515z" fill="#d4cdcb"/></g></g><g><ellipse cx="334.273" cy="99.53" rx="7.547" ry="7.547" transform="matrix(.229 -.973 .973 .229 160.835 402.125)"/><path d="m388.889 102.915c-.173-7.808-1.866-15.244-4.81-22.022 15.29-3.554 26.721-17.281 26.721-33.638 0-19.047-15.495-34.543-34.541-34.543-1.201 0-2.401.063-3.595.188-7.681-8.148-18.511-12.9-29.804-12.9-9.18 0-18.046 3.105-25.189 8.686-8.037-5.64-17.603-8.686-27.562-8.686-26.519 0-48.094 21.575-48.094 48.094 0 19.747 12.279 37.514 30.362 44.706l-28.47 93.28-113.137 16.253c-6.84.983-12.275 5.577-14.691 11.567h-26.796c-4.142 0-7.5 3.358-7.5 7.5v42.133c0 66.71 53.995 121.046 120.574 121.608v25.856c0 4.142 3.358 7.5 7.5 7.5h29.987v48.153c0 4.142 3.358 7.5 7.5 7.5h5.475c8.703 0 15.784 7.081 15.784 15.783v5.642c0 .785-.639 1.424-1.424 1.424h-71.692c-.785 0-1.424-.639-1.424-1.424v-5.642c0-8.703 7.08-15.783 15.784-15.783h5.474c4.142 0 7.5-3.358 7.5-7.5v-20.359c0-4.142-3.358-7.5-7.5-7.5s-7.5 3.358-7.5 7.5v12.925c-16.034 1.047-28.758 14.424-28.758 30.717v5.642c0 9.057 7.368 16.424 16.424 16.424h71.692c9.056 0 16.424-7.368 16.424-16.424v-5.642c0-16.294-12.725-29.67-28.758-30.717v-40.756c3.783-.383 6.736-3.577 6.736-7.462v-25.851h5.73c67.058 0 121.613-54.555 121.613-121.613v-42.134c0-4.142-3.358-7.5-7.5-7.5h-57.267c-3.935-7.76-9.619-14.578-16.788-19.946-12.278-9.193-27.402-13.055-42.583-10.874l-4.476.643 26.851-87.977c.063-.207.117-.416.163-.628 4.274-20.087 22.283-34.667 42.821-34.667 24.14 0 43.779 19.639 43.779 43.779v85.095c0 4.142 3.358 7.5 7.5 7.5s7.5-3.358 7.5-7.5v-34.698c.102.004.202.016.305.016h33.49c4.142 0 7.5-3.358 7.5-7.5-.002-23.436-18.281-42.671-41.33-44.228zm-14.967 125.985v34.633c0 58.787-47.826 106.613-106.613 106.613h-13.23c-4.142 0-7.5 3.358-7.5 7.5v25.851h-29.223v-25.851c0-4.142-3.358-7.5-7.5-7.5h-6.461c-58.786 0-106.612-47.826-106.612-106.613v-34.633h18.892l.544 3.784c3.651 25.415 16.981 47.888 37.534 63.278 16.805 12.583 36.789 19.2 57.414 19.199 4.6 0 9.236-.33 13.871-.996l57.394-8.246c15.183-2.181 28.607-10.144 37.8-22.422s13.055-27.401 10.874-42.584l-1.316-9.16c-.138-.959-.299-1.91-.483-2.854h44.615zm-107.005-30.972c2.046-.294 4.091-.439 6.122-.439 9.102 0 17.922 2.92 25.338 8.473 9.07 6.792 14.953 16.71 16.564 27.926l1.316 9.16c1.611 11.217-1.242 22.39-8.033 31.46-6.792 9.07-16.709 14.953-27.926 16.564l-57.394 8.246c-19.717 2.832-39.355-1.567-55.873-12.382l22.98-3.607c4.092-.642 6.889-4.48 6.246-8.572s-4.482-6.891-8.572-6.246l-34.298 5.384c-.495.078-.97.204-1.424.37-4.768-5.105-8.835-10.763-12.107-16.868l62.123-9.753c4.092-.643 6.889-4.48 6.246-8.572s-4.488-6.894-8.572-6.246l-65.743 10.322c-1.262-4.082-2.226-8.285-2.845-12.595l-1.316-9.16c-.292-2.03 1.123-3.919 3.153-4.211zm63.226-152.477c-22.755 0-43.186 13.338-52.862 33.155-12.099-5.103-20.266-17.149-20.266-30.512 0-18.248 14.846-33.094 33.094-33.094 8.484 0 16.557 3.216 22.73 9.057 1.47 1.391 3.445 2.126 5.461 2.045 2.022-.083 3.925-.979 5.276-2.486 4.912-5.475 11.941-8.616 19.284-8.616 8.282 0 15.869 3.823 20.814 10.488 1.807 2.434 4.901 3.543 7.84 2.808 1.551-.387 3.147-.583 4.745-.583 10.775 0 19.541 8.767 19.541 19.543 0 10.775-8.766 19.541-19.541 19.541-.269 0-.534.016-.795.043-10.79-13.055-27.101-21.389-45.321-21.389zm59.085 94.192c-.103 0-.203.011-.305.016v-21.683c12.227 1.27 22.253 10.062 25.324 21.667z"/></g></g></svg>