<svg id="Capa_1" enable-background="new 0 0 512 512" height="512" viewBox="0 0 512 512" width="512" xmlns="http://www.w3.org/2000/svg"><g><g><g><g><g><g><path d="m377.298 477.687v-306.89c0-8.566-4.093-16.617-11.015-21.664l-51.561-37.6h-117.444l-51.561 37.6c-6.921 5.047-11.015 13.098-11.015 21.664v306.89c0 14.808 12.005 26.813 26.813 26.813h188.97c14.808 0 26.813-12.005 26.813-26.813z" fill="#9ce6fb"/><path d="m377.297 170.803v306.888c0 14.801-11.999 26.813-26.813 26.813h-42.094c14.814 0 26.813-12.012 26.813-26.813v-306.888c0-8.567-4.089-16.624-11.007-21.665l-51.561-37.605h42.081l51.561 37.605c6.931 5.041 11.02 13.099 11.02 21.665z" fill="#68dbf9"/><path d="m134.702 208.141h242.596v225.251h-242.596z" fill="#f5f7f8"/><path d="m134.702 208.141h242.596v54.846h-242.596z" fill="#31a7fb"/><path d="m335.203 208.141h42.094v225.251h-42.094z" fill="#d9e7eb"/><path d="m335.203 208.141h42.094v54.846h-42.094z" fill="#1c96f9"/><path d="m197.278 71.538h117.444v39.996h-117.444z" fill="#68dbf9"/><path d="m272.635 71.533h42.081v40h-42.081z" fill="#24d1f8"/></g></g></g><g><g><g><path d="m312.365 77.165h-112.73c-6.133 0-11.105-4.972-11.105-11.105v-47.455c0-6.133 4.972-11.105 11.105-11.105h112.73c6.133 0 11.105 4.972 11.105 11.105v47.454c0 6.134-4.972 11.106-11.105 11.106z" fill="#596d76"/><path d="m323.469 18.609v47.452c0 6.13-4.975 11.105-11.105 11.105h-31.871c6.13 0 11.105-4.975 11.105-11.105v-47.452c0-6.141-4.975-11.105-11.105-11.105h31.871c6.13-.001 11.105 4.963 11.105 11.105z" fill="#475a61"/></g></g></g></g><g><circle cx="311.714" cy="274.707" fill="#fb4a59" r="31.713"/><path d="m343.43 274.707c0 17.511-14.204 31.715-31.715 31.715-4.213 0-8.232-.818-11.909-2.313 13.694-2.779 24.002-14.89 24.002-29.402s-10.308-26.623-24.002-29.402c3.676-1.495 7.696-2.313 11.909-2.313 17.511 0 31.715 14.204 31.715 31.715z" fill="#f82f40"/></g><g><g><g><path d="m263.591 399.657h-8.027c-5.523 0-10-4.477-10-10v-28.514c0-5.523 4.477-10 10-10h8.027c5.523 0 10 4.477 10 10v28.514c0 5.523-4.477 10-10 10z" fill="#27e19d"/></g></g></g></g><g><path d="m370.702 143.073-48.48-35.353v-25.91c5.244-3.294 8.748-9.114 8.748-15.751v-47.454c0-10.259-8.346-18.605-18.605-18.605h-112.73c-10.259 0-18.606 8.346-18.606 18.605v47.454c0 6.637 3.504 12.457 8.748 15.751v25.91l-6.706 4.89c-3.347 2.441-4.081 7.132-1.641 10.479 2.439 3.347 7.133 4.081 10.479 1.641l7.813-5.697h112.556l49.586 36.159c4.968 3.623 7.934 9.456 7.934 15.605v29.843h-227.596v-29.843c0-6.148 2.966-11.982 7.934-15.605l11.876-8.661c3.347-2.44 4.081-7.132 1.641-10.479-2.44-3.348-7.135-4.082-10.479-1.641l-11.876 8.66c-8.826 6.436-14.096 16.8-14.096 27.725v306.89c0 18.92 15.393 34.313 34.313 34.313h48.041c4.143 0 7.5-3.358 7.5-7.5s-3.357-7.5-7.5-7.5h-48.041c-10.65 0-19.313-8.664-19.313-19.313v-36.795h227.595v36.795c0 10.649-8.663 19.313-19.313 19.313h-103.901c-4.143 0-7.5 3.358-7.5 7.5s3.357 7.5 7.5 7.5h103.902c18.92 0 34.313-15.393 34.313-34.313v-97.823c0-4.142-3.357-7.5-7.5-7.5s-7.5 3.358-7.5 7.5v46.027h-227.596v-155.403h130.529c-.149 1.387-.23 2.794-.23 4.22 0 21.622 17.591 39.213 39.213 39.213 21.621 0 39.212-17.591 39.212-39.213 0-1.426-.081-2.833-.23-4.22h19.102v72.351c0 4.142 3.357 7.5 7.5 7.5s7.5-3.358 7.5-7.5v-172.04c0-10.925-5.27-21.289-14.096-27.725zm-63.48-58.408v19.369h-102.444v-19.369zm-43.722-15v-54.665h20.117v54.664h-20.117zm-15 0h-20.117v-54.665h20.117zm67.47-51.06v47.454c0 1.988-1.617 3.605-3.605 3.605h-13.747v-54.664h13.747c1.988 0 3.605 1.617 3.605 3.605zm-119.94 0c0-1.988 1.617-3.605 3.605-3.605h13.747v54.664h-13.747c-1.988 0-3.605-1.617-3.605-3.605zm115.684 280.315c-13.351 0-24.213-10.862-24.213-24.213s10.862-24.213 24.213-24.213 24.212 10.862 24.212 24.213-10.861 24.213-24.212 24.213zm34.159-43.433c-6.734-11.921-19.518-19.992-34.159-19.992s-27.425 8.071-34.16 19.992h-135.352v-39.846h227.595v39.846z"/><path d="m201.975 228.064h-34.792c-4.143 0-7.5 3.358-7.5 7.5s3.357 7.5 7.5 7.5h34.792c4.143 0 7.5-3.358 7.5-7.5s-3.357-7.5-7.5-7.5z"/><path d="m243.216 317.59c0-4.142-3.357-7.5-7.5-7.5h-66.332c-4.143 0-7.5 3.358-7.5 7.5s3.357 7.5 7.5 7.5h66.332c4.142 0 7.5-3.358 7.5-7.5z"/><path d="m216.249 344.807h-46.865c-4.143 0-7.5 3.358-7.5 7.5s3.357 7.5 7.5 7.5h46.865c4.143 0 7.5-3.358 7.5-7.5s-3.358-7.5-7.5-7.5z"/><path d="m223.749 375.4c0-4.142-3.357-7.5-7.5-7.5h-46.865c-4.143 0-7.5 3.358-7.5 7.5s3.357 7.5 7.5 7.5h46.865c4.142 0 7.5-3.358 7.5-7.5z"/><path d="m169.384 390.994c-4.143 0-7.5 3.358-7.5 7.5s3.357 7.5 7.5 7.5h23.432c4.143 0 7.5-3.358 7.5-7.5s-3.357-7.5-7.5-7.5z"/><path d="m255.564 407.157h8.026c9.649 0 17.5-7.851 17.5-17.5v-28.514c0-9.649-7.851-17.5-17.5-17.5h-8.026c-9.649 0-17.5 7.851-17.5 17.5v28.514c0 9.65 7.851 17.5 17.5 17.5zm-2.5-46.014c0-1.378 1.121-2.5 2.5-2.5h8.026c1.379 0 2.5 1.122 2.5 2.5v28.514c0 1.378-1.121 2.5-2.5 2.5h-8.026c-1.379 0-2.5-1.122-2.5-2.5z"/><path d="m330.9 390.994c-4.143 0-7.5 3.358-7.5 7.5s3.357 7.5 7.5 7.5h11.716c4.143 0 7.5-3.358 7.5-7.5s-3.357-7.5-7.5-7.5z"/><path d="m253.064 292.939v-.104c0-4.142-3.357-7.5-7.5-7.5s-7.5 3.358-7.5 7.5v.104c0 4.142 3.357 7.5 7.5 7.5s7.5-3.358 7.5-7.5z"/></g></g></svg>