<svg id="Capa_1" enable-background="new 0 0 512 512" height="512" viewBox="0 0 512 512" width="512" xmlns="http://www.w3.org/2000/svg"><g><g><path d="m379.24 342.874v-48.488l-50.171-15.678c-2.862-9.743-6.739-19.052-11.518-27.798l24.392-46.567-34.286-34.286-46.567 24.392c-8.746-4.78-18.055-8.656-27.798-11.518l-15.678-50.171h-48.488l-15.678 50.171c-9.743 2.862-19.052 6.739-27.798 11.518l-46.567-24.392-34.286 34.286 24.392 46.567c-4.78 8.746-8.656 18.054-11.518 27.798l-50.171 15.678v48.488l50.171 15.678c2.862 9.743 6.739 19.052 11.518 27.798l-24.392 46.567 34.286 34.286 46.567-24.392c8.746 4.78 18.055 8.656 27.798 11.518l15.678 50.171h48.488l15.678-50.171c9.743-2.862 19.052-6.739 27.798-11.518l46.567 24.392 34.286-34.286-24.392-46.567c4.78-8.746 8.656-18.055 11.518-27.798zm-185.87 24.244c-26.779 0-48.488-21.709-48.488-48.488s21.709-48.488 48.488-48.488 48.488 21.709 48.488 48.488-21.709 48.488-48.488 48.488z" fill="#9facba"/></g><g><path d="m379.24 342.874v-48.488l-50.171-15.678c-2.862-9.743-6.739-19.052-11.518-27.798l24.392-46.567-34.286-34.286-17.078 8.946c6.712 19.206 10.374 39.844 10.374 61.34 0 102.653-83.217 185.87-185.87 185.87-21.496 0-42.134-3.661-61.34-10.374l-8.946 17.078 34.286 34.286 46.567-24.392c8.746 4.78 18.055 8.656 27.798 11.518l15.678 50.171h48.488l15.678-50.171c9.743-2.862 19.052-6.739 27.798-11.518l46.567 24.392 34.286-34.286-24.392-46.567c4.78-8.746 8.656-18.055 11.518-27.798z" fill="#8d9ca8"/></g><g><path d="m193.37 227.715c-50.131 0-90.915 40.784-90.915 90.915s40.784 90.915 90.915 90.915 90.915-40.784 90.915-90.915-40.784-90.915-90.915-90.915zm0 139.403c-26.779 0-48.488-21.709-48.488-48.488s21.709-48.488 48.488-48.488 48.488 21.709 48.488 48.488-21.709 48.488-48.488 48.488z" fill="#596c76"/></g><g><g><path d="m504.5 112.557v-26.264l-29.423-7.005c-1.095-3.4-2.464-6.675-4.073-9.808l15.858-25.769-18.572-18.573-25.769 15.858c-3.133-1.609-6.408-2.978-9.808-4.073l-7.006-29.423h-26.264l-7.005 29.423c-3.4 1.095-6.675 2.464-9.808 4.073l-25.77-15.858-18.571 18.572 15.858 25.769c-1.609 3.133-2.978 6.408-4.073 9.808l-29.423 7.005v26.264l29.423 7.005c1.095 3.4 2.464 6.675 4.073 9.808l-15.858 25.769 18.572 18.572 25.77-15.858c3.133 1.609 6.408 2.978 9.808 4.073l7.005 29.423h26.264l7.005-29.423c3.4-1.095 6.675-2.464 9.808-4.073l25.769 15.858 18.572-18.572-15.858-25.769c1.609-3.133 2.978-6.408 4.073-9.808zm-91.925 13.132c-14.505 0-26.264-11.759-26.264-26.264s11.759-26.264 26.264-26.264 26.264 11.759 26.264 26.264-11.758 26.264-26.264 26.264z" fill="#8d9ca8"/></g><g><path d="m445.822 128.363c-16.36 16.36-34.065 29.693-51.918 39.722l5.539 23.264h26.264l7.006-29.423c3.4-1.095 6.675-2.464 9.808-4.073l25.77 15.858 18.572-18.571-15.858-25.77c1.609-3.133 2.978-6.408 4.073-9.808l29.423-7.006v-26.263l-21.667-5.159c-9.678 16.256-22.085 32.302-37.012 47.229z" fill="#7a8c98"/></g></g><g><path d="m506.237 78.997-25.464-6.062c-.392-1.006-.807-2.006-1.245-2.997l13.721-22.296c1.82-2.958 1.372-6.778-1.084-9.234l-18.572-18.572c-2.456-2.456-6.277-2.905-9.234-1.084l-22.296 13.721c-.991-.438-1.991-.854-2.997-1.245l-6.062-25.464c-.805-3.38-3.823-5.764-7.296-5.764h-26.265c-3.473 0-6.492 2.384-7.296 5.763l-6.062 25.464c-1.006.392-2.006.807-2.997 1.245l-22.296-13.721c-2.957-1.82-6.777-1.372-9.234 1.084l-18.572 18.572c-2.456 2.456-2.904 6.276-1.084 9.234l13.721 22.296c-.438.991-.854 1.991-1.245 2.997l-25.464 6.062c-3.378.804-5.763 3.823-5.763 7.296v26.265c0 3.473 2.384 6.492 5.763 7.296l25.464 6.062c.392 1.006.807 2.006 1.245 2.997l-13.721 22.296c-1.82 2.958-1.372 6.778 1.084 9.234l18.572 18.572c2.456 2.456 6.277 2.905 9.234 1.084l22.296-13.721c.991.438 1.991.854 2.997 1.245l6.062 25.464c.804 3.378 3.823 5.763 7.296 5.763h26.265c3.473 0 6.492-2.384 7.296-5.763l6.062-25.464c1.006-.392 2.006-.807 2.997-1.245l22.296 13.721c2.958 1.821 6.779 1.372 9.234-1.084l18.572-18.572c2.456-2.456 2.904-6.276 1.084-9.234l-13.721-22.296c.438-.991.854-1.991 1.245-2.997l25.464-6.062c3.378-.804 5.763-3.823 5.763-7.296v-26.265c0-3.473-2.384-6.491-5.763-7.295zm-9.237 27.636-23.661 5.633c-2.55.607-4.599 2.502-5.402 4.998-.95 2.95-2.163 5.87-3.606 8.68-1.198 2.333-1.09 5.123.285 7.357l12.753 20.725-10.194 10.194-20.725-12.753c-2.234-1.375-5.024-1.482-7.357-.285-2.81 1.443-5.73 2.656-8.68 3.606-2.496.803-4.391 2.852-4.998 5.402l-5.633 23.661h-14.417l-5.633-23.661c-.607-2.55-2.502-4.599-4.998-5.402-2.95-.95-5.87-2.163-8.68-3.606-2.334-1.198-5.124-1.09-7.357.285l-20.725 12.753-10.194-10.194 12.753-20.725c1.375-2.234 1.483-5.023.285-7.357-1.443-2.81-2.656-5.73-3.606-8.68-.803-2.496-2.852-4.391-5.402-4.998l-23.661-5.633v-14.417l23.661-5.633c2.55-.607 4.599-2.502 5.402-4.998.95-2.95 2.163-5.87 3.606-8.68 1.198-2.333 1.09-5.123-.285-7.357l-12.753-20.725 10.194-10.194 20.725 12.753c2.234 1.375 5.023 1.482 7.357.285 2.81-1.443 5.73-2.656 8.68-3.606 2.496-.803 4.391-2.852 4.998-5.402l5.635-23.659h14.417l5.633 23.661c.607 2.55 2.502 4.599 4.998 5.402 2.95.95 5.87 2.163 8.68 3.606 2.333 1.197 5.124 1.09 7.357-.285l20.725-12.753 10.194 10.194-12.753 20.725c-1.375 2.234-1.483 5.023-.285 7.357 1.443 2.81 2.656 5.73 3.606 8.68.803 2.496 2.852 4.391 5.402 4.998l23.659 5.631z"/><path d="m412.575 65.661c-18.618 0-33.764 15.146-33.764 33.764s15.146 33.764 33.764 33.764 33.764-15.146 33.764-33.764-15.146-33.764-33.764-33.764zm0 52.528c-10.347 0-18.764-8.417-18.764-18.764s8.417-18.764 18.764-18.764 18.764 8.417 18.764 18.764-8.417 18.764-18.764 18.764z"/><path d="m381.48 287.232-10.45-3.27c-3.951-1.237-8.161.965-9.397 4.918s.965 8.161 4.918 9.397l5.19 1.624v37.455l-44.908 14.035c-2.393.748-4.254 2.642-4.959 5.048-2.671 9.105-6.34 17.958-10.905 26.315-1.202 2.2-1.225 4.854-.062 7.075l21.832 41.686-26.482 26.483-41.686-21.832c-2.22-1.163-4.874-1.139-7.075.062-8.359 4.566-17.212 8.235-26.315 10.905-2.406.706-4.3 2.566-5.048 4.959l-14.037 44.908h-37.453l-14.035-44.907c-.748-2.393-2.642-4.254-5.048-4.959-9.103-2.67-17.957-6.339-26.315-10.905-2.201-1.202-4.856-1.225-7.075-.062l-41.686 21.832-26.483-26.483 21.832-41.686c1.163-2.22 1.14-4.875-.062-7.075-4.566-8.358-8.235-17.212-10.905-26.315-.706-2.406-2.566-4.3-4.959-5.048l-44.907-14.036v-37.453l44.907-14.035c2.393-.748 4.254-2.642 4.959-5.048 2.67-9.103 6.339-17.956 10.905-26.315 1.202-2.2 1.225-4.855.062-7.075l-21.832-41.686 26.483-26.482 41.686 21.832c2.22 1.162 4.875 1.139 7.075-.062 8.357-4.565 17.21-8.234 26.315-10.905 2.406-.706 4.3-2.566 5.048-4.959l14.035-44.908h37.453l14.035 44.908c.748 2.393 2.642 4.254 5.048 4.959 9.104 2.67 17.958 6.339 26.315 10.905 2.199 1.202 4.854 1.224 7.075.062l41.686-21.832 26.482 26.482-21.832 41.686c-1.163 2.221-1.14 4.875.062 7.075 4.566 8.357 8.235 17.211 10.905 26.315.706 2.406 2.568 4.301 4.961 5.048l6.31 1.97c3.954 1.235 8.16-.97 9.395-4.924s-.97-8.16-4.924-9.395l-2.542-.794c-2.424-7.491-5.456-14.805-9.048-21.833l22.56-43.075c1.522-2.906.979-6.463-1.341-8.783l-34.28-34.28c-2.319-2.32-5.878-2.861-8.783-1.341l-43.075 22.56c-7.027-3.593-14.343-6.625-21.834-9.048l-14.503-46.405c-.979-3.131-3.878-5.263-7.159-5.263h-48.48c-3.28 0-6.18 2.132-7.159 5.263l-14.502 46.405c-7.491 2.424-14.807 5.456-21.834 9.048l-43.075-22.56c-2.906-1.522-6.464-.979-8.783 1.341l-34.28 34.28c-2.319 2.319-2.863 5.877-1.341 8.783l22.56 43.075c-3.593 7.029-6.625 14.344-9.048 21.834l-46.404 14.505c-3.131.979-5.263 3.879-5.263 7.159v48.48c0 3.28 2.132 6.18 5.263 7.159l46.404 14.502c2.423 7.49 5.456 14.806 9.048 21.834l-22.56 43.075c-1.522 2.906-.979 6.463 1.341 8.783l34.28 34.28c2.319 2.32 5.877 2.862 8.783 1.341l43.075-22.56c7.028 3.593 14.344 6.625 21.834 9.048l14.502 46.404c.979 3.131 3.878 5.263 7.159 5.263h48.48c3.28 0 6.18-2.132 7.159-5.263l14.503-46.404c7.49-2.423 14.805-5.455 21.834-9.048l43.075 22.56c2.904 1.522 6.463.978 8.783-1.341l34.28-34.28c2.319-2.319 2.863-5.877 1.341-8.783l-22.56-43.075c3.593-7.027 6.625-14.343 9.048-21.834l46.405-14.502c3.131-.979 5.263-3.878 5.263-7.159v-48.48c0-3.279-2.13-6.178-5.26-7.158z"/><path d="m193.37 262.64c-11.793 0-23.079 3.63-32.637 10.5-3.363 2.417-4.131 7.104-1.713 10.467 2.417 3.363 7.103 4.13 10.467 1.713 6.992-5.024 15.25-7.68 23.883-7.68 22.602 0 40.99 18.388 40.99 40.99s-18.388 40.99-40.99 40.99-40.99-18.388-40.99-40.99c0-3.064.338-6.115 1.005-9.066.913-4.041-1.622-8.056-5.662-8.969-4.044-.914-8.056 1.621-8.969 5.662-.912 4.035-1.375 8.198-1.375 12.374 0 30.873 25.117 55.99 55.99 55.99s55.99-25.117 55.99-55.99-25.116-55.991-55.989-55.991z"/><path d="m193.37 220.215c-54.266 0-98.415 44.148-98.415 98.415s44.149 98.415 98.415 98.415 98.415-44.149 98.415-98.415-44.149-98.415-98.415-98.415zm0 181.83c-45.995 0-83.415-37.42-83.415-83.415s37.42-83.415 83.415-83.415 83.415 37.419 83.415 83.415-37.42 83.415-83.415 83.415z"/></g></g></svg>